<?xml version="1.0" encoding="UTF-8"?>
<svg width="86px" height="30px" viewBox="0 0 86 30" version="1.1" xmlns="http://www.w3.org/2000/svg" xmlns:xlink="http://www.w3.org/1999/xlink">
    <!-- Generator: Sketch 64 (93537) - https://sketch.com -->
    <title>Group 4</title>
    <desc>Created with Sketch.</desc>
    <g id="Page-1" stroke="none" stroke-width="1" fill="none" fill-rule="evenodd">
        <g id="Artboard" transform="translate(-917.000000, -581.000000)" fill-rule="nonzero">
            <g id="Group-4" transform="translate(917.000000, 581.000000)">
                <path d="M67.4202609,1.49568709 C67.2329412,2.4837357 66.9055835,3.43999782 66.448087,4.33555666 C65.5693913,6.36964361 64.7654783,8.01112187 64.2476087,7.83912187 C63.7297391,7.66712187 64.2046087,5.90038274 64.5598261,3.70925231 C64.6925652,2.88477405 65.3076522,-0.573921606 66.8033043,0.0822957857 C67.3454783,0.319730568 67.4782174,0.865643612 67.4127826,1.49942622" id="Fill_1" fill="#83C25C"></path>
                <path d="M75.2294348,3.04929579 C75.1244381,3.25694479 75.0038156,3.45631576 74.8686087,3.64568709 C74.2626755,4.48754603 73.5992679,5.28650866 72.8831304,6.036861 C70.9462609,8.08590448 69.286087,9.70494796 68.743913,9.27868709 C68.2017391,8.85242622 69.544087,6.95294796 70.9182174,4.49073057 C71.479049,3.41479368 72.2023338,2.43170647 73.0626087,1.57607839 C73.5711304,1.10494796 74.5956522,0.454339264 75.207,1.13673057 C75.6147937,1.7057834 75.6237546,2.46895523 75.2294348,3.04742622" id="Fill_2" fill="#E9A629"></path>
                <path d="M84.2706522,15.483774 C83.7191097,15.7402329 83.1444382,15.9436841 82.5543913,16.0913827 C81.9168696,16.2671219 81.2718696,16.4148175 80.6212609,16.5438175 C77.8543043,17.087861 75.5622174,17.4412088 75.3677826,16.7793827 C75.193913,16.1886001 76.3231304,15.7698175 76.7007826,15.5884697 C78.1459565,14.8929914 79.6210435,14.1825567 81.1204348,13.6198175 C82.1038261,13.2459045 84.7679565,12.2269914 85.3325652,13.746948 C85.6316957,14.5489914 85.0278261,15.1042523 84.2706522,15.483774" id="Fill_3" fill="#A95392"></path>
                <path d="M82.2103913,6.83890448 C81.7774733,7.26539263 81.3097037,7.65499215 80.8119565,8.00364361 C80.0884348,8.56451318 79.3368696,9.08051318 78.5684783,9.57407839 C75.7286087,11.3912958 73.3430435,12.8065567 72.8999565,12.2195132 C72.4568696,11.6324697 74.2890435,10.0994262 74.5956522,9.78907839 C75.6912174,8.66733926 76.7830435,7.53064361 77.972087,6.50425231 C78.8713478,5.72464361 81.3896522,3.32038274 82.7133043,4.55242622 C83.1732174,4.98055666 82.9133478,5.75455666 82.6628261,6.22007839 C82.5387652,6.44464036 82.3867422,6.65257263 82.2103913,6.83890448" id="Fill_4" fill="#268CC2"></path>
                <path d="M25.098913,29.656948 C19.9426522,29.656948 16.740087,26.6862088 16.740087,21.9057306 C16.7012166,19.7726831 17.5147633,17.7122364 19.0003913,16.1811219 C20.5319735,14.6878944 22.5975509,13.8698773 24.7362174,13.9096001 C26.8173233,13.8576414 28.8371669,14.6165073 30.3692174,16.025948 C31.7991882,17.4402695 32.5870489,19.3788392 32.5491304,21.3897306 L32.5491304,21.7468175 C32.5136087,22.7806871 32.1378261,23.2611654 31.3675652,23.2611654 L21.8888696,23.2611654 C22.2813353,24.8190497 23.7792317,25.8353359 25.3718696,25.6242958 C26.8405018,25.6992052 28.2333828,24.9683726 29.0063043,23.7173393 C29.0063043,23.7173393 29.0306087,23.7173393 29.0511739,23.7173393 C29.4830435,23.7173393 31.6685652,24.139861 31.6685652,26.147774 C31.6704348,28.2772088 29.0923043,29.656948 25.098913,29.656948 Z M24.6745217,17.6917306 C23.197578,17.6861254 21.9552901,18.7976461 21.7972609,20.2661219 L27.3087391,20.2661219 C27.3389079,19.5647845 27.0694205,18.8837043 26.5675434,18.3928849 C26.0656663,17.9020655 25.3787522,17.6478163 24.6782609,17.6936001 L24.6745217,17.6917306 Z M57.004913,29.5335567 C55.7408825,29.6777851 54.4750464,29.2786347 53.5223802,28.4354253 C52.569714,27.5922159 52.0197864,26.3842251 52.0094348,25.1120349 C51.9286611,23.5164952 52.7935162,22.022588 54.2173913,21.2981219 C56.414178,20.3168306 58.8154914,19.8806946 61.2170435,20.0268175 L61.7928696,20.0268175 C61.7824741,19.4381938 61.5203121,18.882249 61.0727713,18.499766 C60.6252306,18.1172831 60.035229,17.9449412 59.4521739,18.0263827 C58.1088941,17.9410169 56.8722184,18.7578336 56.4234783,20.0268175 C56.2603022,20.0705834 56.0908904,20.0863868 55.9224348,20.0735567 C55.21623,20.0782156 54.5164839,19.9389025 53.865913,19.6641219 C53.078491,19.3621667 52.5653476,18.5984356 52.5833913,17.7552958 C52.5833913,16.0016436 53.8341304,13.9096001 59.7924348,13.9096001 C61.882868,13.7329495 63.9693097,14.2924201 65.690913,15.4912523 C67.0164831,16.7222755 67.7006874,18.4955511 67.5455217,20.2979045 L67.5455217,28.8380784 C67.5455217,29.1297306 66.4593043,29.5036436 65.3020435,29.5036436 C63.7601559,29.6152094 62.3687823,28.5816176 62.0303043,27.0732088 C60.8900713,28.7035582 58.9920082,29.6335244 57.004913,29.5354262 L57.004913,29.5335567 Z M61.0936522,22.9003393 C58.6632174,22.9639045 57.5190435,23.5023393 57.5190435,24.5960349 C57.5190435,25.4560349 58.192087,25.988861 59.2764348,25.988861 C59.966328,26.0225333 60.6379622,25.7610755 61.1235087,25.2698209 C61.6090553,24.7785663 61.8626458,24.1039223 61.820913,23.4144697 L61.820913,22.9022088 L61.0936522,22.9003393 Z M47.501913,29.471861 C46.2191788,29.467992 45.0288168,28.8039324 44.3516957,27.7144697 L41.1117391,23.021861 L41.1117391,26.5665567 C41.1117391,28.4361219 40.2461304,29.3839914 38.5373478,29.3839914 L37.9334783,29.3839914 C36.1368261,29.3839914 35.2992609,28.4884697 35.2992609,26.5665567 L35.2992609,8.57760013 C35.2992609,8.3644697 36.3593043,7.91203492 37.5427391,7.91203492 C38.8776087,7.91203492 41.1173478,8.48599144 41.1173478,12.3335567 L41.1173478,20.2679914 L44.1086522,15.7567306 C44.7482929,14.6739145 45.9096529,14.0066294 47.1672609,13.9993393 C48.3582072,14.0324155 49.4770287,14.5775173 50.237087,15.4949914 C50.3174783,15.6202523 50.3455217,15.7174697 50.3174783,15.7791654 L46.2923043,21.5093827 L50.7138261,27.7182088 C50.7381304,27.764948 50.7138261,27.8416001 50.6577391,27.9388175 C49.8661545,28.8677491 48.7231785,29.4246704 47.5037826,29.4756001 L47.501913,29.471861 Z M12.2026522,29.471861 C10.9199179,29.467992 9.72955592,28.8039324 9.05243478,27.7144697 L5.81434783,23.0256001 L5.81434783,26.5665567 C5.81434783,28.4361219 4.94873913,29.3839914 3.23995652,29.3839914 L2.63421739,29.3839914 C0.837565217,29.3839914 1.42108547e-14,28.4884697 1.42108547e-14,26.5665567 L1.42108547e-14,8.57760013 C1.42108547e-14,8.3644697 1.06004348,7.91203492 2.24347826,7.91203492 C3.57647826,7.91203492 5.81434783,8.48599144 5.81434783,12.3335567 L5.81434783,20.2679914 L8.81313043,15.7642088 C9.45277114,14.6813927 10.6141312,14.0141076 11.8717391,14.0068175 C13.0629239,14.0389213 14.1821259,14.5842085 14.9415652,15.5024697 C15.0219565,15.6277306 15.05,15.724948 15.0219565,15.784774 L10.9930435,21.5093827 L15.4145652,27.7182088 C15.4388696,27.764948 15.4145652,27.8416001 15.3584783,27.9388175 C14.5668936,28.8677491 13.4239176,29.4246704 12.2045217,29.4756001 L12.2026522,29.471861 Z" id="keka" fill="#FFFFFF"></path>
            </g>
        </g>
    </g>
</svg>